<svg xmlns="http://www.w3.org/2000/svg" version="1.1" xmlns:xlink="http://www.w3.org/1999/xlink" xmlns:svgjs="http://svgjs.dev/svgjs" width="1500" height="1500" viewBox="0 0 1500 1500"><rect width="1500" height="1500" fill="#000000"></rect><g transform="matrix(0.6666666666666666,0,0,0.6666666666666666,249.59408623901192,345.0311827956989)"><svg viewBox="0 0 307 248" data-background-color="#fffff5" preserveAspectRatio="xMidYMid meet" height="1211" width="1500" xmlns="http://www.w3.org/2000/svg" xmlns:xlink="http://www.w3.org/1999/xlink"><g id="tight-bounds" transform="matrix(1,0,0,1,0.12461552462335135,0.4000000000000057)"><svg viewBox="0 0 306.7507689507533 247.2" height="247.2" width="306.7507689507533"><g><svg viewBox="0 0 395.52 318.73610075838695" height="247.2" width="306.7507689507533"><g transform="matrix(1,0,0,1,0,237.15537418094908)"><svg viewBox="0 0 395.52 81.58072657743786" height="81.58072657743786" width="395.52"><g id="textblocktransform"><svg viewBox="0 0 395.52 81.58072657743786" height="81.58072657743786" width="395.52" id="textblock"><g><svg viewBox="0 0 395.52 81.58072657743786" height="81.58072657743786" width="395.52"><g transform="matrix(1,0,0,1,0,0)"><svg width="395.52" viewBox="4.5 -42.3 209.18 43.15" height="81.58072657743786" data-palette-color="#091627"><path d="M11.55 0.65Q7.8 0.65 6.15-0.85 4.5-2.35 4.5-5.9L4.5-5.9 4.5-42.3 9.2-42.3 9.2-7.15Q9.2-5.15 9.83-4.42 10.45-3.7 12.2-3.7L12.2-3.7Q13.6-3.7 14.7-4L14.7-4 14.7 0.3Q12.7 0.65 11.55 0.65L11.55 0.65ZM20.45-32.85L20.45-40.4 25.15-40.4 25.15-32.85 20.45-32.85ZM20.45 0L20.45-27.65 25.15-27.65 25.15 0 20.45 0ZM52.14-27.65L57.05-27.65 46.59 0.45 41.2 0.45 30.64-27.65 35.55-27.65 43.89-4.75 52.14-27.65ZM65.74-13.45Q65.84-8.85 68.04-6.1 70.24-3.35 75.04-3.35L75.04-3.35Q78.69-3.35 83.04-5.4L83.04-5.4 84.49-1.5Q79.94 0.85 74.64 0.85L74.64 0.85Q70.24 0.85 67.14-1 64.04-2.85 62.44-6.15 60.84-9.45 60.84-13.85L60.84-13.85Q60.84-18.5 62.52-21.78 64.19-25.05 67.04-26.75 69.89-28.45 73.44-28.45L73.44-28.45Q78.89-28.45 81.99-25.05 85.09-21.65 85.09-15.3L85.09-15.3 85.09-13.45 65.74-13.45ZM73.44-24.25Q67.24-24.25 66.04-17.4L66.04-17.4 80.14-17.4Q79.89-20.9 78.24-22.58 76.59-24.25 73.44-24.25L73.44-24.25ZM121.39-42.3L126.09-42.3 126.09 0 121.39 0 121.39-2.5Q117.44 0.85 113.39 0.85L113.39 0.85Q107.79 0.85 104.44-2.9 101.09-6.65 101.09-13.8L101.09-13.8Q101.09-20.95 104.44-24.7 107.79-28.45 113.39-28.45L113.39-28.45Q117.39-28.45 121.39-25.05L121.39-25.05 121.39-42.3ZM113.99-3.5Q117.59-3.5 121.39-6.6L121.39-6.6 121.39-20.95Q117.69-24.05 113.99-24.05L113.99-24.05Q110.04-24.05 108.01-21.45 105.99-18.85 105.99-13.8L105.99-13.8Q105.99-8.75 108.01-6.13 110.04-3.5 113.99-3.5L113.99-3.5ZM147.03 0.85Q142.64 0.85 139.56-1.07 136.49-3 134.94-6.33 133.39-9.65 133.39-13.8L133.39-13.8Q133.39-17.95 134.94-21.28 136.49-24.6 139.56-26.53 142.64-28.45 147.03-28.45L147.03-28.45Q151.44-28.45 154.51-26.53 157.59-24.6 159.11-21.28 160.64-17.95 160.64-13.8L160.64-13.8Q160.64-9.65 159.11-6.33 157.59-3 154.51-1.07 151.44 0.85 147.03 0.85L147.03 0.85ZM147.03-3.4Q151.19-3.4 153.46-6.3 155.74-9.2 155.74-13.8L155.74-13.8Q155.74-18.4 153.46-21.28 151.19-24.15 147.03-24.15L147.03-24.15Q142.89-24.15 140.59-21.28 138.28-18.4 138.28-13.8L138.28-13.8Q138.28-9.2 140.59-6.3 142.89-3.4 147.03-3.4L147.03-3.4ZM179.63 0.85Q173.18 0.8 169.71-3.15 166.23-7.1 166.23-13.85L166.23-13.85Q166.23-20.6 169.71-24.5 173.18-28.4 179.63-28.45L179.63-28.45Q181.88-28.45 183.51-28.13 185.13-27.8 186.98-27.05L186.98-27.05 186.98-22.5Q185.18-23.35 183.56-23.7 181.93-24.05 179.98-24.05L179.98-24.05Q175.33-24 173.23-21.28 171.13-18.55 171.13-13.9L171.13-13.9Q171.13-9.15 173.23-6.35 175.33-3.55 179.88-3.5L179.88-3.5Q183.43-3.5 187.63-5.65L187.63-5.65 189.13-1.55Q184.58 0.85 179.63 0.85L179.63 0.85ZM203.63 0.85Q200.58 0.85 198.23 0.35 195.88-0.15 193.33-1.35L193.33-1.35 193.33-6Q198.08-3.35 203.63-3.35L203.63-3.35Q206.43-3.35 207.66-4.48 208.88-5.6 208.88-7.45L208.88-7.45Q208.88-9.25 207.91-10.1 206.93-10.95 204.73-11.55L204.73-11.55 201.48-12.35Q197.98-13.2 195.98-15.05 193.98-16.9 193.98-20.5L193.98-20.5Q193.98-24.25 196.43-26.35 198.88-28.45 203.63-28.45L203.63-28.45Q206.08-28.45 208.18-27.98 210.28-27.5 212.38-26.65L212.38-26.65 212.38-22.25Q210.33-23.2 208.33-23.73 206.33-24.25 203.78-24.25L203.78-24.25Q201.13-24.25 199.96-23.23 198.78-22.2 198.78-20.65L198.78-20.65Q198.78-18.95 199.81-18.07 200.83-17.2 202.78-16.7L202.78-16.7 206.08-15.95Q208.58-15.35 210.21-14.45 211.83-13.55 212.76-11.93 213.68-10.3 213.68-7.6L213.68-7.6Q213.68-3.55 210.96-1.35 208.23 0.85 203.63 0.85L203.63 0.85Z" opacity="1" transform="matrix(1,0,0,1,0,0)" fill="#ffffff" class="wordmark-text-0" data-fill-palette-color="primary" id="text-0"></path></svg></g></svg></g></svg></g></svg></g><g transform="matrix(1,0,0,1,98.44156451702067,0)"><svg viewBox="0 0 198.63687096595865 198.63687096595865" height="198.63687096595865" width="198.63687096595865"><g><svg></svg></g><g id="icon-0"><svg viewBox="0 0 198.63687096595865 198.63687096595865" height="198.63687096595865" width="198.63687096595865"><g><path d="M0 99.318c0-54.852 44.466-99.318 99.318-99.318 54.852 0 99.318 44.466 99.319 99.318 0 54.852-44.466 99.318-99.319 99.319-54.852 0-99.318-44.466-99.318-99.319zM99.318 191.28c50.789 0 91.961-41.173 91.962-91.962 0-50.789-41.173-91.961-91.962-91.961-50.789 0-91.961 41.173-91.961 91.961 0 50.789 41.173 91.961 91.961 91.962z" data-fill-palette-color="accent" fill="#ffffff" stroke="transparent"></path></g><g transform="matrix(1,0,0,1,41.84303967109434,49.73742498806383)"><svg viewBox="0 0 114.95079162376997 99.16202098983099" height="99.16202098983099" width="114.95079162376997"><g><svg xmlns="http://www.w3.org/2000/svg" xmlns:xlink="http://www.w3.org/1999/xlink" version="1.1" x="0" y="0" viewBox="0.507 7.136 98.51299999999999 84.982" enable-background="new 0 0 100 100" xml:space="preserve" height="99.16202098983099" width="114.95079162376997" class="icon-dxe-0" data-fill-palette-color="accent" id="dxe-0"><g fill="#dad603" data-fill-palette-color="accent"><path d="M22.048 42.728L25.829 47.455 38.642 65.239A0.42 0.42 0 0 0 38.849 65.402L23.004 90.852 15.187 44.39zM0.507 55.422A0.9 0.9 0 0 1 0.708 54.928L12.118 40.129A0.635 0.635 0 0 1 12.785 39.889L21.121 41.797C21.362 41.887 21.356 41.907 21.425 41.978L14.778 43.589C14.538 43.65 14.484 43.67 14.343 43.778zM19.537 87.812L15.759 82.927A0.4 0.4 0 0 1 15.694 82.816L18.169 81.769zM21.713 88.462C21.429 88.598 21.039 88.784 20.647 88.749L18.907 81.064C18.842 80.779 18.578 80.646 18.309 80.757L15.982 81.742C16.602 80.805 17.908 79.713 18.311 79.263L13.357 50.91 1.485 55.936A1.1 1.1 0 0 1 1.16 56.018L14.382 44.89zM37.129 61.631L46.048 53.846 39.311 64.665zM39.486 86.967L23.765 92.118C30.733 86.326 39.638 78.907 47.736 72.148zM98.23 86.475L40.604 86.768 49.525 70.742zM99.02 85.784L50.25 70.055A46403 46403 0 0 0 69.246 54.201zM49.038 69.889A0.4 0.4 0 0 0 48.934 70.001 13656 13656 0 0 1 24.16 90.65L46.208 55.246zM60.498 60.363L49.812 69.277 47.014 54.795zM55.514 57.355L47.55 54.066 56.358 55.515zM79.921 8.222C79.813 9.295 74.361 58.34 74.361 58.34L69.605 53.3A0.464 0.464 0 0 0 69.001 53.262L61.246 59.737C61.207 59.702 56.319 57.694 56.319 57.694L63.139 42.826C63.143 42.824 79.249 9.773 79.921 8.222M32.224 7.136C32.33 7.194 32.434 7.285 32.531 7.413L60.976 45.447 56.734 54.694 45.979 52.923A0.9 0.9 0 0 0 45.62 53.027L43.274 55.084zM26.009 46.159L31.351 7.717C31.364 7.633 31.381 7.557 31.407 7.489L42.525 55.736 36.616 60.917z" fill="#ffffff" data-fill-palette-color="accent"></path></g></svg></g></svg></g></svg></g></svg></g><g></g></svg></g><defs></defs></svg><rect width="306.7507689507533" height="247.2" fill="none" stroke="none" visibility="hidden"></rect></g></svg></g></svg>